<svg xmlns="http://www.w3.org/2000/svg" viewBox="0 0 320 45.7"><path class="svg-path" d="M283.9 45.7V33.2c0-7.8-3.8-9.9-14.9-9.9h-21.7v22.4H261V30.6h3.7c4.1 0 5.5 2.4 5.5 5v10.2h13.7v-.1zm-39.2-14.9v-.9c0-3.7-2.1-6.5-11.7-6.5h-14.1c-8.9 0-12.6 3-12.6 9.6v3.9c0 5.6 3.7 8.8 11.6 8.8H243v-6.5h-20.3c-2 0-2.7-.6-2.7-2.1v-.2h15.7c5.6-.1 9-1.9 9-6.1zm-13 .5c0 1-.4 1.6-2 1.6H220V32c0-1.3.5-2.1 2.1-2.1h7.5c1.2 0 2.1.4 2.1 1.4zm-35.4-1.2h8.6v-6.8h-17.6c-2.8 0-4.6 1.5-4.6 4v18.4h13.7V30.1h-.1zM179.6 37v-4.9c0-5.6-3.7-8.8-11.6-8.8h-24.5v6.5h19.7c2 0 2.7.6 2.7 2.2v.2h-15.7c-6.6 0-8.9 2.8-8.9 6.4v.7c0 1.6.5 3 1.5 3.9 1.9 1.8 5.6 2.4 10.6 2.4H167c8.9.1 12.6-1.9 12.6-8.6zm-13.7 0c0 1.3-.5 2.1-2.1 2.1h-7.4c-1.3 0-2.1-.4-2.1-1.4 0-1 .5-1.6 2.1-1.6h9.5v.9zm-26.6 8.7v-6.8h-10.6V19.8H115v26h24.3v-.1zm-49.4 0H112V39H93.9c-1.7 0-3.5-1-3.5-4.3v-.5c0-2.9 1.5-4.1 3.4-4.1H112v-6.8H89.4c-9.2 0-12.9 4-12.9 10.2v2.1c0 7.2 4 10.1 13.4 10.1zm-29.9 0h13.7v-26h-8c-3.3 0-5.6 1.4-7.9 3.3-2.5 2.2-11.6 10.1-11.6 10.1V19.8h-8.1c-4.6 0-6.9 1.6-9.4 3.6C26.9 24.7 0 45.7 0 45.7h16.3l16.1-13.3v13.3h13.1L60 32.6v13.1z"></path><path class="svg-path" d="M309.5 0c-7 0-17 2.1-27.8 6-9 3.3-17.9 7.5-27.5 13.5 5.6-2.3 16.7-4.9 25.9-4.9 12.3 0 21.2 4.7 8.2 21.3C326.6 10.9 325.5 0 309.5 0"></path></svg>
